<svg width="16" height="16" viewBox="0 0 16 16" fill="none" xmlns="http://www.w3.org/2000/svg">
<g clip-path="url(#clip0_367_170)">
<path d="M0.640015 11.648V4.352C0.640015 4.24596 0.725977 4.16 0.832015 4.16H10.2613C10.3674 4.16 10.4533 4.24596 10.4533 4.352V8L15.0497 4.40287C15.1757 4.30423 15.36 4.39403 15.36 4.55407V11.4459C15.36 11.606 15.1757 11.6958 15.0497 11.5971L10.4533 8V11.648C10.4533 11.754 10.3674 11.84 10.2613 11.84H0.832015C0.725976 11.84 0.640015 11.754 0.640015 11.648Z" fill="black"/>
<path d="M10.4533 8V11.648C10.4533 11.754 10.3674 11.84 10.2613 11.84H0.832015C0.725976 11.84 0.640015 11.754 0.640015 11.648V4.352C0.640015 4.24596 0.725977 4.16 0.832015 4.16H10.2613C10.3674 4.16 10.4533 4.24596 10.4533 4.352V8ZM10.4533 8L15.0497 4.40287C15.1757 4.30423 15.36 4.39403 15.36 4.55407V11.4459C15.36 11.606 15.1757 11.6958 15.0497 11.5971L10.4533 8Z" stroke="black" stroke-width="1.28" stroke-linecap="round" stroke-linejoin="round"/>
<path d="M0.640015 11.648V4.352C0.640015 4.24596 0.725977 4.16 0.832015 4.16H10.2613C10.3674 4.16 10.4533 4.24596 10.4533 4.352V8L15.0497 4.40287C15.1757 4.30423 15.36 4.39403 15.36 4.55407V11.4459C15.36 11.606 15.1757 11.6958 15.0497 11.5971L10.4533 8V11.648C10.4533 11.754 10.3674 11.84 10.2613 11.84H0.832015C0.725976 11.84 0.640015 11.754 0.640015 11.648Z" fill="#1F44FF"/>
</g>
<defs>
<clipPath id="clip0_367_170">
<rect width="16" height="16" fill="white"/>
</clipPath>
</defs>
</svg>
